<?xml version="1.0" encoding="utf-8"?>
<!DOCTYPE svg PUBLIC "-//W3C//DTD SVG 1.1//EN" "http://www.w3.org/Graphics/SVG/1.1/DTD/svg11.dtd">
<svg version="1.1" xmlns="http://www.w3.org/2000/svg" xmlns:xlink="http://www.w3.org/1999/xlink" viewBox="0 0 67 35" enable-background="new 0 0 67 35" xml:space="preserve">
<path fill="#CFCFCF" d="M25.7,29.9h3.1v-4.8h3.6v-2.8h-3.6v-2.1h3.8v-2.8h-6.8V29.9z M34.2,29.9h3.2V17.4h-3.2V29.9z M39.5,29.9
h4.4c4.8,0,6.4-2.9,6.4-6.3c0-1.4-0.3-2.7-1.1-3.9c-1.6-2.3-4.1-2.3-5.5-2.3h-4.1V29.9z M42.7,20.2h1.4c1.4,0,2.1,0.6,2.4,1.1
				c0.5,0.7,0.6,1.6,0.6,2.3c0,1.8-0.7,3.4-3.1,3.4h-1.4V20.2z M58.8,28.1l0.6,1.8h3.5l-5-12.5h-2.5l-5,12.5h3.4l0.7-1.8H58.8z
				 M56.6,21.3L56.6,21.3L56.6,21.3l1.3,4.3h-2.6L56.6,21.3z"/>

<path fill="#CFCFCF" d="M17.6,10.2L17.6,10.2L17.6,10.2z"/>
<path fill="#CFCFCF" d="M9.6,10.2L9.6,10.2L9.6,10.2z"/>
<path fill="#CFCFCF" d="M13.6,10.2c-0.2-0.2-0.2-0.4-0.4-0.6c-0.2-0.2-0.3-0.3-0.5-0.4c-0.2-0.1-0.3-0.1-0.4-0.2				c-0.2-0.1-0.3-0.2-0.5-0.3c-0.2-0.1-0.2-0.2-0.4-0.4C11.2,8,11.1,7.9,11,7.6c-0.1-0.2-0.1-0.4-0.2-0.6c0-0.3,0-0.4,0-0.7
c0-0.2,0.1-0.3,0.1-0.5c0-0.1,0.1-0.2,0.1-0.3c0.1-0.1,0.1-0.1,0.2-0.2V1.4h0.2v4l0,0c0,0.2,0,0.3,0,0.6c0,0.2,0.1,0.3,0.2,0.5
c0.1,0.2,0.2,0.3,0.4,0.4C12.3,6.9,12.3,7,12.4,7c0.1,0,0.1,0,0.1,0c-0.1-0.2-0.1-0.4-0.1-0.7c0-0.3,0-0.5,0.1-0.7V1.4h0h0.2v3.8
l0,0l0,0l0,0C12.9,5.2,12.9,5.1,13,5C13.1,5,13.1,5,13.2,4.9c0.1,0,0.1-0.1,0.2-0.1c0.1,0,0.2,0,0.2,0s0.1,0,0.2,0
				c0.1,0,0.1,0,0.2,0.1C14.1,5,14.1,5,14.2,5c0.1,0.1,0.1,0.1,0.2,0.2l0,0l0,0l0,0V1.4h0.2h0v4.2c0.1,0.2,0.1,0.4,0.1,0.7
				c0,0.2,0,0.5-0.1,0.7c0,0,0.1,0,0.1,0c0.1,0,0.2-0.1,0.3-0.1c0.2-0.1,0.3-0.2,0.4-0.4c0.1-0.2,0.1-0.3,0.2-0.5
				c0.1-0.2,0-0.3,0-0.6l0,0v-4h0.2v3.9C16,5.4,16,5.5,16.1,5.5c0.1,0.1,0.1,0.2,0.1,0.3c0.1,0.2,0.1,0.3,0.1,0.5c0,0.3,0,0.4,0,0.7
				c0,0.3-0.1,0.4-0.2,0.6C16,7.9,16,8,15.8,8.3c-0.1,0.2-0.2,0.3-0.4,0.4C15.3,8.8,15.1,8.9,15,9c-0.2,0.1-0.3,0.1-0.4,0.2
				c-0.2,0.1-0.3,0.2-0.5,0.4C13.8,9.8,13.8,10,13.6,10.2z"/>
<path fill="#CFCFCF" d="M13.6,13.6c-0.3-0.6-0.8-1-1.3-1.4c0,0-0.2-0.1-0.7-0.4c-0.4-0.2-0.7-0.5-0.9-0.8c-1.4-2-0.6-3.9-0.5-3.8
				l0,0l0,0V1.4l0,0h0.2v6.1l0,0c0,0-0.1,0.7,1,1.2c0.7,0.3,1.6,1.1,2.2,2.2c0.6-1.1,1.5-1.9,2.2-2.2c1.1-0.5,1-1.2,1-1.2l0,0V1.4
				H17l0,0v5.7l0,0l0,0c0.1,0,0.9,1.8-0.5,3.8c-0.2,0.3-0.5,0.6-0.9,0.8c-0.5,0.3-0.7,0.4-0.7,0.4C14.4,12.6,13.9,13,13.6,13.6z"/>
<path fill="#CFCFCF" d="M13.6,17c0,0-0.3-1.1-1.6-1.6c-4.3-1.6-2.8-5-2.6-5.2V1.4h0.2v8.8l0,0c0,0.1,0,0.4,0.1,0.6
				c0.1,0.3,0.4,0.7,0.6,0.8c0.5,0.3,0.9,0.4,1.4,0.7c0.4,0.2,1,0.6,1.9,1.6c0.9-1,1.4-1.4,1.9-1.6c0.5-0.3,0.9-0.3,1.4-0.7
				c0.2-0.1,0.4-0.5,0.6-0.8c0.1-0.3,0.1-0.5,0.1-0.6l0,0V1.4h0.2v8.8c0.2,0.2,1.7,3.6-2.6,5.2C13.9,15.9,13.6,17,13.6,17z"/>
<path fill="#CFCFCF" d="M7.3,29.9H4.4v-2.5h2.8c1.2,0,2.2-1,2.2-2.2v-7.8h2.4l0,7.9C11.9,27.8,9.8,29.9,7.3,29.9z"/>
<path fill="#CFCFCF" d="M19.9,29.9h2.8v-2.5H20c-1.2,0-2.2-1-2.2-2.2v-7.8h-2.4l0,7.9C15.3,27.8,17.4,29.9,19.9,29.9z"/>
<path fill="#CFCFCF" d="M7.2,32.9H4.4v-2.5h2.8c3.2,0,5.2-2.5,5.2-5.2v-7.8h2.4l0,7.9C14.8,29.4,11.5,32.9,7.2,32.9z"/>
</svg>
